<?xml version="1.0" encoding="UTF-8" standalone="no"?>
<!DOCTYPE svg PUBLIC "-//W3C//DTD SVG 1.1//EN" "http://www.w3.org/Graphics/SVG/1.1/DTD/svg11.dtd">
<svg xmlns="http://www.w3.org/2000/svg" version="1.1" viewBox="0.00 0.00 442.00 432.00">
<g stroke-width="2.00" fill="none" stroke-linecap="butt">
<path stroke="#808080" vector-effect="non-scaling-stroke" d="
  M 105.48 128.72
  C 105.46 118.95 96.51 114.80 87.96 114.70
  Q 73.66 114.53 59.06 114.44
  Q 58.50 114.44 58.50 115.00
  L 58.50 195.25
  A 0.41 0.41 0.0 0 0 58.91 195.66
  Q 72.85 195.58 86.83 195.73
  C 93.70 195.80 105.46 194.56 105.48 185.00
  Q 105.53 156.86 105.48 128.72"
/>
<path stroke="#808080" vector-effect="non-scaling-stroke" d="
  M 189.04 159.79
  L 200.56 195.24
  Q 200.73 195.75 201.26 195.75
  L 217.72 195.75
  Q 218.50 195.75 218.50 194.97
  L 218.50 115.00
  Q 218.50 114.25 217.75 114.25
  L 202.30 114.25
  Q 201.79 114.25 201.79 114.76
  L 201.60 150.65
  A 0.33 0.33 0.0 0 1 200.96 150.75
  L 188.51 114.56
  Q 188.39 114.22 188.03 114.23
  L 172.34 114.30
  Q 171.82 114.31 171.82 114.83
  C 171.60 148.03 172.69 168.18 171.67 194.63
  Q 171.63 195.75 172.75 195.75
  L 187.87 195.75
  Q 188.50 195.75 188.50 195.13
  L 188.54 159.87
  A 0.26 0.26 0.0 0 1 189.04 159.79"
/>
<path stroke="#808080" vector-effect="non-scaling-stroke" d="
  M 228.52 114.48
  A 0.27 0.27 0.0 0 0 228.25 114.75
  L 228.25 195.23
  A 0.51 0.51 0.0 0 0 228.75 195.74
  Q 243.30 195.79 257.89 195.72
  C 265.56 195.68 275.23 194.05 275.24 184.19
  Q 275.27 155.87 275.24 127.55
  C 275.22 116.80 262.23 114.57 254.03 114.54
  Q 241.48 114.49 228.52 114.48"
/>
<path stroke="#808080" vector-effect="non-scaling-stroke" d="
  M 306.32 180.06
  A 0.32 0.32 0.0 0 1 306.00 179.74
  L 306.00 161.07
  A 0.32 0.32 0.0 0 1 306.32 160.75
  L 318.68 160.75
  A 0.32 0.32 0.0 0 0 319.00 160.43
  L 319.00 147.32
  A 0.32 0.32 0.0 0 0 318.68 147.00
  L 306.32 147.00
  A 0.32 0.32 0.0 0 1 306.00 146.68
  L 306.00 130.24
  A 0.32 0.32 0.0 0 1 306.32 129.92
  L 319.67 130.04
  A 0.32 0.32 0.0 0 0 320.00 129.71
  L 319.80 114.57
  A 0.32 0.32 0.0 0 0 319.48 114.25
  L 285.57 114.25
  A 0.32 0.32 0.0 0 0 285.25 114.57
  L 285.25 195.19
  A 0.32 0.32 0.0 0 0 285.57 195.51
  L 320.56 195.49
  A 0.32 0.32 0.0 0 0 320.88 195.17
  L 320.81 180.17
  A 0.32 0.32 0.0 0 0 320.49 179.85
  L 306.32 180.06"
/>
<path stroke="#808080" vector-effect="non-scaling-stroke" d="
  M 141.15 183.33
  Q 139.31 184.14 137.33 183.73
  A 1.98 1.97 6.0 0 1 135.76 181.80
  L 135.74 114.99
  Q 135.74 114.50 135.24 114.50
  L 115.76 114.50
  Q 115.25 114.50 115.25 115.01
  Q 115.24 145.54 115.25 176.09
  C 115.25 186.78 116.61 193.56 127.51 196.25
  C 137.40 198.69 155.94 199.08 161.06 187.91
  Q 162.50 184.78 162.50 177.88
  Q 162.51 146.45 162.49 115.01
  Q 162.49 114.50 161.99 114.50
  L 142.53 114.50
  Q 142.04 114.50 142.04 114.99
  C 142.01 137.37 142.86 160.27 141.68 182.57
  A 0.88 0.87 80.4 0 1 141.15 183.33"
/>
<path stroke="#808080" vector-effect="non-scaling-stroke" d="
  M 364.74 152.82
  C 367.00 152.13 369.83 151.56 371.58 150.41
  C 375.70 147.70 375.15 135.00 374.44 130.11
  C 373.26 122.00 369.73 116.15 361.22 115.49
  Q 351.31 114.71 328.99 115.04
  Q 328.50 115.05 328.50 115.53
  L 328.50 195.25
  Q 328.50 195.75 329.00 195.75
  L 348.50 195.75
  Q 349.00 195.75 349.00 195.25
  L 349.00 159.77
  A 0.75 0.74 88.0 0 1 349.69 159.02
  Q 352.56 158.84 355.08 160.06
  A 1.16 1.16 0.0 0 1 355.74 161.09
  L 356.08 195.04
  Q 356.09 195.75 356.79 195.75
  L 374.21 195.75
  Q 375.09 195.75 375.07 194.87
  Q 374.64 178.42 374.74 163.11
  C 374.78 157.62 369.36 154.58 364.74 153.32
  Q 363.87 153.08 364.74 152.82"
/>
<path stroke="#808080" vector-effect="non-scaling-stroke" d="
  M 324.28 248.87
  L 335.86 284.56
  Q 336.00 285.00 336.47 285.00
  L 353.25 285.00
  A 0.50 0.50 0.0 0 0 353.75 284.50
  L 353.75 204.01
  Q 353.75 203.51 353.26 203.51
  L 337.23 203.47
  Q 336.75 203.47 336.75 203.96
  L 336.75 239.50
  A 0.17 0.17 0.0 0 1 336.42 239.56
  Q 329.57 222.03 324.15 203.99
  Q 324.00 203.50 323.49 203.50
  L 307.51 203.50
  A 0.50 0.50 0.0 0 0 307.01 204.00
  L 307.05 284.37
  A 0.63 0.63 0.0 0 0 307.68 285.00
  L 323.23 285.00
  A 0.80 0.79 -0.0 0 0 324.03 284.21
  L 323.94 248.92
  A 0.18 0.17 36.3 0 1 324.28 248.87"
/>
<path stroke="#808080" vector-effect="non-scaling-stroke" d="
  M 175.75 251.14
  A 0.39 0.39 0.0 0 1 176.14 250.75
  L 188.16 250.75
  A 0.39 0.39 0.0 0 0 188.55 250.36
  L 188.48 236.11
  A 0.39 0.39 0.0 0 0 188.09 235.72
  L 176.14 235.81
  A 0.39 0.39 0.0 0 1 175.75 235.42
  L 175.75 219.89
  A 0.39 0.39 0.0 0 1 176.14 219.50
  L 190.14 219.50
  A 0.39 0.39 0.0 0 0 190.53 219.11
  L 190.48 204.14
  A 0.39 0.39 0.0 0 0 190.09 203.75
  L 155.29 203.75
  A 0.39 0.39 0.0 0 0 154.90 204.14
  L 154.72 284.86
  A 0.39 0.39 0.0 0 0 155.11 285.25
  L 175.36 285.25
  A 0.39 0.39 0.0 0 0 175.75 284.86
  L 175.75 251.14"
/>
<path stroke="#808080" vector-effect="non-scaling-stroke" d="
  M 217.25 251.21
  A 0.46 0.46 0.0 0 1 217.71 250.75
  L 229.74 250.75
  A 0.46 0.46 0.0 0 0 230.20 250.29
  L 230.27 236.20
  A 0.46 0.46 0.0 0 0 229.81 235.74
  L 217.71 235.80
  A 0.46 0.46 0.0 0 1 217.25 235.34
  L 217.25 219.96
  A 0.46 0.46 0.0 0 1 217.71 219.50
  L 231.57 219.50
  A 0.46 0.46 0.0 0 0 232.03 219.04
  L 231.98 204.21
  A 0.46 0.46 0.0 0 0 231.52 203.75
  L 196.72 203.75
  A 0.46 0.46 0.0 0 0 196.26 204.21
  L 196.25 284.79
  A 0.46 0.46 0.0 0 0 196.71 285.25
  L 216.79 285.25
  A 0.46 0.46 0.0 0 0 217.25 284.79
  L 217.25 251.21"
/>
<path stroke="#808080" vector-effect="non-scaling-stroke" d="
  M 258.60 269.74
  A 0.35 0.35 0.0 0 1 258.25 269.39
  L 258.25 204.36
  A 0.35 0.35 0.0 0 0 257.90 204.01
  L 238.10 203.97
  A 0.35 0.35 0.0 0 0 237.75 204.32
  L 237.75 284.90
  A 0.35 0.35 0.0 0 0 238.10 285.25
  L 270.90 285.25
  A 0.35 0.35 0.0 0 0 271.25 284.90
  L 271.25 270.10
  A 0.35 0.35 0.0 0 0 270.90 269.75
  L 258.60 269.74"
/>
<path stroke="#5d5c5c" vector-effect="non-scaling-stroke" d="
  M 392.5131 204.2499
  A 0.30 0.30 0.0 0 0 392.2125 203.9504
  L 358.2926 204.0096
  A 0.30 0.30 0.0 0 0 357.9931 204.3101
  L 358.0069 212.2301
  A 0.30 0.30 0.0 0 0 358.3075 212.5296
  L 392.2274 212.4704
  A 0.30 0.30 0.0 0 0 392.5269 212.1699
  L 392.5131 204.2499"
/>
<path stroke="#808080" vector-effect="non-scaling-stroke" d="
  M 145.51 204.40
  A 0.40 0.40 0.0 0 0 145.11 204.00
  L 125.65 204.00
  A 0.40 0.40 0.0 0 0 125.25 204.40
  L 125.25 285.10
  A 0.40 0.40 0.0 0 0 125.65 285.50
  L 145.11 285.50
  A 0.40 0.40 0.0 0 0 145.51 285.10
  L 145.51 204.40"
/>
<path stroke="#808080" vector-effect="non-scaling-stroke" d="
  M 297.25 204.27
  A 0.26 0.26 0.0 0 0 296.99 204.01
  L 277.05 204.01
  A 0.26 0.26 0.0 0 0 276.79 204.27
  L 276.79 285.03
  A 0.26 0.26 0.0 0 0 277.05 285.29
  L 296.99 285.29
  A 0.26 0.26 0.0 0 0 297.25 285.03
  L 297.25 204.27"
/>
<path stroke="#808080" vector-effect="non-scaling-stroke" d="
  M 89.94 285.25
  A 0.13 0.13 0.0 0 0 90.07 285.14
  L 97.24 231.49
  A 0.13 0.13 0.0 0 1 97.50 231.51
  L 97.50 285.12
  A 0.13 0.13 0.0 0 0 97.63 285.25
  L 115.89 285.25
  A 0.13 0.13 0.0 0 0 116.02 285.12
  L 115.94 204.63
  A 0.13 0.13 0.0 0 0 115.81 204.50
  L 89.30 204.50
  A 0.13 0.13 0.0 0 0 89.17 204.61
  L 83.80 241.69
  A 0.13 0.13 0.0 0 1 83.55 241.69
  L 77.84 204.61
  A 0.13 0.13 0.0 0 0 77.71 204.50
  L 50.68 204.50
  A 0.13 0.13 0.0 0 0 50.55 204.63
  L 50.38 285.12
  A 0.13 0.13 0.0 0 0 50.51 285.25
  L 68.95 285.25
  A 0.13 0.13 0.0 0 0 69.08 285.12
  L 68.72 232.94
  A 0.13 0.13 0.0 0 1 68.81 232.82
  L 69.03 232.74
  A 0.13 0.13 0.0 0 1 69.20 232.84
  L 77.16 285.14
  A 0.13 0.13 0.0 0 0 77.29 285.25
  L 89.94 285.25"
/>
<path stroke="#5d5c5c" vector-effect="non-scaling-stroke" d="
  M 379.89 228.91
  A 0.33 0.33 0.0 0 1 379.79 228.26
  L 392.24 224.63
  A 0.33 0.33 0.0 0 0 392.48 224.31
  L 392.54 217.08
  A 0.33 0.33 0.0 0 0 392.21 216.75
  L 358.58 216.75
  A 0.33 0.33 0.0 0 0 358.25 217.08
  L 358.25 224.17
  A 0.33 0.33 0.0 0 0 358.58 224.50
  L 372.01 224.51
  A 0.33 0.33 0.0 0 1 372.09 225.16
  L 358.25 228.82
  A 0.33 0.33 0.0 0 0 358.00 229.13
  L 358.00 237.17
  A 0.33 0.33 0.0 0 0 358.33 237.50
  L 392.17 237.50
  A 0.33 0.33 0.0 0 0 392.50 237.17
  L 392.50 229.11
  A 0.33 0.33 0.0 0 0 392.17 228.78
  L 379.89 228.91"
/>
<path stroke="#5d5c5c" vector-effect="non-scaling-stroke" d="
  M 363.65 249.50
  L 387.17 249.50
  Q 387.85 249.50 387.85 250.18
  L 387.83 252.93
  A 0.82 0.82 0.0 0 1 387.01 253.75
  L 378.50 253.75
  A 0.50 0.50 0.0 0 0 378.00 254.25
  L 378.00 261.74
  Q 378.00 262.25 378.50 262.29
  C 381.88 262.61 388.30 263.29 390.90 260.73
  C 394.57 257.13 394.84 245.09 390.29 241.95
  C 386.72 239.49 370.39 240.76 365.40 240.76
  C 354.27 240.75 355.47 261.03 362.25 262.23
  Q 365.35 262.78 371.38 262.10
  Q 371.75 262.06 371.75 261.69
  L 371.75 254.51
  Q 371.75 253.77 371.01 253.76
  L 363.70 253.72
  A 0.70 0.70 0.0 0 1 363.00 253.02
  L 363.00 250.16
  A 0.66 0.65 90.0 0 1 363.65 249.50"
/>
<path stroke="#808080" vector-effect="non-scaling-stroke" d="
  M 363.92 286.08
  Q 362.83 288.74 360.52 290.38
  A 1.21 1.20 -17.7 0 0 360.01 291.36
  L 359.99 295.73
  Q 359.99 296.47 360.71 296.31
  C 367.50 294.76 373.72 288.03 373.75 280.99
  Q 373.78 274.13 373.73 270.19
  Q 373.73 269.68 373.21 269.69
  L 360.48 269.78
  Q 360.00 269.78 360.00 270.27
  L 360.00 284.74
  Q 360.00 285.24 360.50 285.24
  L 363.38 285.27
  A 0.59 0.58 11.4 0 1 363.92 286.08"
/>
<path stroke="#808080" vector-effect="non-scaling-stroke" d="
  M 195.12 301.48
  C 184.39 306.51 192.43 321.49 204.44 316.64
  Q 205.00 316.41 205.00 315.81
  L 205.00 313.78
  A 0.35 0.35 0.0 0 0 204.47 313.48
  Q 199.10 316.82 194.77 312.70
  Q 192.13 310.20 193.22 307.21
  C 194.86 302.73 200.69 302.74 204.35 304.55
  Q 204.91 304.83 204.97 304.21
  C 205.44 299.39 197.58 300.33 195.12 301.48"
/>
<path stroke="#808080" vector-effect="non-scaling-stroke" d="
  M 345.07 309.78
  Q 345.08 310.97 344.24 310.13
  Q 340.23 306.14 336.32 301.93
  C 334.93 300.44 333.56 300.24 331.65 300.56
  Q 331.25 300.63 331.25 301.04
  L 331.25 316.63
  Q 331.25 317.25 331.88 317.25
  L 334.38 317.25
  Q 335.00 317.25 335.00 316.62
  L 334.99 307.75
  Q 334.99 306.90 335.59 307.50
  L 345.12 316.98
  A 0.95 0.92 -21.9 0 0 345.78 317.25
  L 348.22 317.25
  A 0.78 0.78 0.0 0 0 349.00 316.47
  L 349.00 301.00
  Q 349.00 300.50 348.50 300.50
  L 345.61 300.50
  Q 344.96 300.50 344.97 301.14
  L 345.07 309.78"
/>
<path stroke="#808080" vector-effect="non-scaling-stroke" d="
  M 367.56 305.68
  L 363.96 300.93
  Q 363.63 300.50 363.09 300.50
  L 360.50 300.50
  Q 359.64 300.50 360.12 301.21
  Q 362.37 304.61 364.66 308.00
  C 366.53 310.77 366.12 313.53 365.96 316.66
  Q 365.93 317.25 366.52 317.25
  L 369.25 317.25
  A 0.75 0.75 0.0 0 0 370.00 316.50
  L 370.00 310.44
  Q 370.00 309.91 370.29 309.48
  L 375.76 301.21
  Q 376.09 300.73 375.52 300.59
  C 371.54 299.59 370.36 303.16 368.30 305.69
  Q 367.92 306.16 367.56 305.68"
/>
<path stroke="#808080" vector-effect="non-scaling-stroke" d="
  M 75.89 313.77
  A 0.31 0.31 0.0 0 1 76.17 313.62
  L 83.35 313.81
  A 0.31 0.31 0.0 0 1 83.62 313.99
  L 85.28 317.33
  A 0.31 0.31 0.0 0 0 85.56 317.50
  L 88.71 317.50
  A 0.31 0.31 0.0 0 0 88.98 317.04
  L 79.77 300.99
  A 0.31 0.31 0.0 0 0 79.23 301.00
  L 70.24 317.04
  A 0.31 0.31 0.0 0 0 70.51 317.50
  L 73.64 317.50
  A 0.31 0.31 0.0 0 0 73.91 317.34
  L 75.89 313.77"
/>
<path stroke="#808080" vector-effect="non-scaling-stroke" d="
  M 127.72 315.49
  A 0.47 0.47 0.0 0 1 127.25 315.02
  L 127.25 309.96
  A 0.47 0.47 0.0 0 1 127.72 309.49
  L 133.78 309.51
  A 0.47 0.47 0.0 0 0 134.25 309.04
  L 134.25 307.45
  A 0.47 0.47 0.0 0 0 133.77 306.98
  L 127.73 307.04
  A 0.47 0.47 0.0 0 1 127.25 306.57
  L 127.25 303.72
  A 0.47 0.47 0.0 0 1 127.72 303.25
  L 134.78 303.25
  A 0.47 0.47 0.0 0 0 135.25 302.78
  L 135.25 301.22
  A 0.47 0.47 0.0 0 0 134.78 300.75
  L 124.97 300.75
  A 0.47 0.47 0.0 0 0 124.50 301.22
  L 124.50 317.28
  A 0.47 0.47 0.0 0 0 124.97 317.75
  L 134.78 317.75
  A 0.47 0.47 0.0 0 0 135.25 317.28
  L 135.25 315.97
  A 0.47 0.47 0.0 0 0 134.78 315.50
  L 127.72 315.49"
/>
<path stroke="#808080" vector-effect="non-scaling-stroke" d="
  M 313.89 313.45
  A 0.31 0.31 0.0 0 1 314.17 313.62
  L 316.14 317.34
  A 0.31 0.31 0.0 0 0 316.42 317.50
  L 319.56 317.50
  A 0.31 0.31 0.0 0 0 319.83 317.04
  L 310.55 300.94
  A 0.31 0.31 0.0 0 0 310.01 300.94
  L 301.09 317.04
  A 0.31 0.31 0.0 0 0 301.37 317.50
  L 304.38 317.50
  A 0.31 0.31 0.0 0 0 304.65 317.34
  L 306.66 313.75
  A 0.31 0.31 0.0 0 1 306.93 313.60
  L 313.89 313.45"
/>
<path stroke="#808080" vector-effect="non-scaling-stroke" d="
  M 58.43 301.08
  L 51.27 300.96
  Q 50.75 300.95 50.75 301.48
  L 50.75 316.00
  Q 50.75 316.50 51.25 316.50
  L 53.00 316.50
  Q 53.50 316.50 53.50 316.00
  L 53.50 311.47
  A 0.78 0.78 0.0 0 1 54.38 310.70
  C 60.40 311.49 63.25 306.09 59.51 301.59
  A 1.45 1.43 -19.3 0 0 58.43 301.08"
/>
<path stroke="#808080" vector-effect="non-scaling-stroke" d="
  M 103.96 310.71
  C 110.19 311.35 112.88 306.74 109.36 301.55
  A 0.97 0.95 73.2 0 0 108.59 301.13
  L 101.04 300.94
  Q 100.50 300.93 100.50 301.47
  L 100.50 315.88
  Q 100.50 316.50 101.13 316.50
  L 102.50 316.50
  Q 103.24 316.50 103.24 315.75
  L 103.26 311.35
  A 0.64 0.64 0.0 0 1 103.96 310.71"
/>
<path stroke="#808080" vector-effect="non-scaling-stroke" d="
  M 152.70 310.97
  L 156.28 315.99
  A 1.22 1.20 -17.4 0 0 157.27 316.50
  L 159.77 316.50
  Q 160.49 316.50 160.02 315.95
  L 156.11 311.39
  Q 155.69 310.90 156.22 310.54
  Q 158.82 308.73 158.44 304.76
  C 157.95 299.71 153.03 300.87 148.89 301.06
  Q 148.39 301.09 148.39 301.59
  L 148.43 315.75
  A 1.41 1.41 0.0 0 0 151.25 315.75
  L 151.25 311.43
  A 0.80 0.80 0.0 0 1 152.70 310.97"
/>
<path stroke="#808080" vector-effect="non-scaling-stroke" d="
  M 236.7099 309.1190
  A 9.74 8.24 -0.3 0 0 226.9269 300.9301
  A 9.74 8.24 -0.3 0 0 217.2301 309.2210
  A 9.74 8.24 -0.3 0 0 227.0131 317.4099
  A 9.74 8.24 -0.3 0 0 236.7099 309.1190"
/>
<path stroke="#808080" vector-effect="non-scaling-stroke" d="
  M 284.37 310.68
  Q 290.79 311.65 291.18 305.62
  C 291.54 300.00 284.82 300.72 281.33 301.08
  Q 280.75 301.14 280.75 301.73
  L 280.75 316.00
  Q 280.75 316.50 281.25 316.50
  L 282.96 316.50
  Q 283.42 316.50 283.44 316.04
  L 283.65 311.28
  Q 283.68 310.58 284.37 310.68"
/>
<path stroke="#808080" vector-effect="non-scaling-stroke" d="
  M 253.94 306.96
  L 259.48 314.08
  Q 259.82 314.52 260.16 314.08
  L 265.68 306.95
  A 0.46 0.46 0.0 0 1 266.50 307.23
  L 266.50 316.96
  A 0.60 0.60 0.0 0 0 267.22 317.55
  L 268.70 317.22
  Q 269.25 317.10 269.25 316.54
  L 269.25 302.74
  Q 269.25 302.25 268.77 302.10
  C 264.78 300.92 262.33 306.87 260.19 309.53
  Q 259.80 310.01 259.43 309.52
  C 257.41 306.87 254.94 301.13 251.03 302.07
  A 0.70 0.69 -7.0 0 0 250.50 302.74
  L 250.50 316.75
  Q 250.50 317.25 251.00 317.25
  L 252.75 317.25
  Q 253.25 317.25 253.25 316.75
  L 253.25 307.19
  A 0.39 0.38 26.3 0 1 253.94 306.96"
/>
<path stroke="#808080" vector-effect="non-scaling-stroke" d="
  M 84.15 128.50
  L 78.75 127.87
  Q 78.02 127.79 78.02 128.52
  L 77.99 181.68
  Q 77.99 182.17 78.48 182.21
  Q 82.25 182.48 85.21 180.33
  A 1.31 1.30 72.2 0 0 85.75 179.27
  L 85.75 130.30
  A 1.81 1.81 0.0 0 0 84.15 128.50"
/>
<path stroke="#808080" vector-effect="non-scaling-stroke" d="
  M 247.76 128.51
  L 247.66 181.75
  A 0.51 0.51 0.0 0 0 248.17 182.26
  L 250.58 182.27
  A 5.18 4.68 0.1 0 0 255.77 177.60
  L 255.85 132.70
  A 5.18 4.68 0.1 0 0 250.68 128.01
  L 248.27 128.00
  A 0.51 0.51 0.0 0 0 247.76 128.51"
/>
<path stroke="#808080" vector-effect="non-scaling-stroke" d="
  M 349.06 128.61
  L 349.06 146.15
  A 0.86 0.86 0.0 0 0 349.92 147.01
  L 351.38 147.01
  A 4.64 3.62 -0.0 0 0 356.02 143.39
  L 356.02 131.37
  A 4.64 3.62 0.0 0 0 351.38 127.75
  L 349.92 127.75
  A 0.86 0.86 0.0 0 0 349.06 128.61"
/>
<path stroke="#808080" vector-effect="non-scaling-stroke" d="
  M 77.67 310.22
  A 0.33 0.33 0.0 0 0 77.96 310.71
  L 81.18 310.78
  A 0.33 0.33 0.0 0 0 81.49 310.31
  L 79.95 307.09
  A 0.33 0.33 0.0 0 0 79.36 307.07
  L 77.67 310.22"
/>
<path stroke="#808080" vector-effect="non-scaling-stroke" d="
  M 308.49 310.26
  A 0.33 0.33 0.0 0 0 308.78 310.74
  L 312.08 310.76
  A 0.33 0.33 0.0 0 0 312.38 310.28
  L 310.75 306.96
  A 0.33 0.33 0.0 0 0 310.16 306.96
  L 308.49 310.26"
/>
<path stroke="#808080" vector-effect="non-scaling-stroke" d="
  M 53.52 304.44
  L 53.67 307.69
  A 0.38 0.38 0.0 0 0 54.06 308.06
  L 55.61 307.99
  A 2.71 1.88 -2.6 0 0 58.23 305.98
  L 58.22 305.72
  A 2.71 1.88 -2.6 0 0 55.43 303.97
  L 53.88 304.04
  A 0.38 0.38 0.0 0 0 53.52 304.44"
/>
<path stroke="#808080" vector-effect="non-scaling-stroke" d="
  M 103.51 304.23
  L 103.49 307.53
  A 0.45 0.45 0.0 0 0 103.94 307.98
  L 104.76 307.99
  A 3.17 1.99 0.2 0 0 107.94 306.01
  L 107.94 305.79
  A 3.17 1.99 0.2 0 0 104.78 303.79
  L 103.96 303.78
  A 0.45 0.45 0.0 0 0 103.51 304.23"
/>
<path stroke="#808080" vector-effect="non-scaling-stroke" d="
  M 151.23 304.53
  L 151.25 307.23
  A 0.77 0.77 0.0 0 0 152.02 308.00
  L 152.85 307.99
  A 2.92 1.89 -0.3 0 0 155.76 306.09
  L 155.76 305.63
  A 2.92 1.89 -0.3 0 0 152.83 303.75
  L 152.00 303.76
  A 0.77 0.77 0.0 0 0 151.23 304.53"
/>
<path stroke="#808080" vector-effect="non-scaling-stroke" d="
  M 233.7295 309.1333
  A 6.82 5.59 0.7 0 0 226.9783 303.4604
  A 6.82 5.59 0.7 0 0 220.0905 308.9667
  A 6.82 5.59 0.7 0 0 226.8417 314.6396
  A 6.82 5.59 0.7 0 0 233.7295 309.1333"
/>
<path stroke="#808080" vector-effect="non-scaling-stroke" d="
  M 283.72 304.55
  L 283.76 307.27
  A 0.77 0.77 0.0 0 0 284.54 308.02
  L 284.90 308.02
  A 3.39 1.88 -0.9 0 0 288.26 306.08
  L 288.26 305.58
  A 3.39 1.88 -0.9 0 0 284.84 303.76
  L 284.48 303.76
  A 0.77 0.77 0.0 0 0 283.72 304.55"
/>
</g>
<path fill="#000000" d="
  M 441.6397 215.6267
  A 219.64 210.81 -0.1 0 1 222.3679 426.8197
  A 219.64 210.81 -0.1 0 1 2.3603 216.3933
  A 219.64 210.81 -0.1 0 1 221.6321 5.2003
  A 219.64 210.81 -0.1 0 1 441.6397 215.6267
  Z
  M 105.48 128.72
  C 105.46 118.95 96.51 114.80 87.96 114.70
  Q 73.66 114.53 59.06 114.44
  Q 58.50 114.44 58.50 115.00
  L 58.50 195.25
  A 0.41 0.41 0.0 0 0 58.91 195.66
  Q 72.85 195.58 86.83 195.73
  C 93.70 195.80 105.46 194.56 105.48 185.00
  Q 105.53 156.86 105.48 128.72
  Z
  M 189.04 159.79
  L 200.56 195.24
  Q 200.73 195.75 201.26 195.75
  L 217.72 195.75
  Q 218.50 195.75 218.50 194.97
  L 218.50 115.00
  Q 218.50 114.25 217.75 114.25
  L 202.30 114.25
  Q 201.79 114.25 201.79 114.76
  L 201.60 150.65
  A 0.33 0.33 0.0 0 1 200.96 150.75
  L 188.51 114.56
  Q 188.39 114.22 188.03 114.23
  L 172.34 114.30
  Q 171.82 114.31 171.82 114.83
  C 171.60 148.03 172.69 168.18 171.67 194.63
  Q 171.63 195.75 172.75 195.75
  L 187.87 195.75
  Q 188.50 195.75 188.50 195.13
  L 188.54 159.87
  A 0.26 0.26 0.0 0 1 189.04 159.79
  Z
  M 228.52 114.48
  A 0.27 0.27 0.0 0 0 228.25 114.75
  L 228.25 195.23
  A 0.51 0.51 0.0 0 0 228.75 195.74
  Q 243.30 195.79 257.89 195.72
  C 265.56 195.68 275.23 194.05 275.24 184.19
  Q 275.27 155.87 275.24 127.55
  C 275.22 116.80 262.23 114.57 254.03 114.54
  Q 241.48 114.49 228.52 114.48
  Z
  M 306.32 180.06
  A 0.32 0.32 0.0 0 1 306.00 179.74
  L 306.00 161.07
  A 0.32 0.32 0.0 0 1 306.32 160.75
  L 318.68 160.75
  A 0.32 0.32 0.0 0 0 319.00 160.43
  L 319.00 147.32
  A 0.32 0.32 0.0 0 0 318.68 147.00
  L 306.32 147.00
  A 0.32 0.32 0.0 0 1 306.00 146.68
  L 306.00 130.24
  A 0.32 0.32 0.0 0 1 306.32 129.92
  L 319.67 130.04
  A 0.32 0.32 0.0 0 0 320.00 129.71
  L 319.80 114.57
  A 0.32 0.32 0.0 0 0 319.48 114.25
  L 285.57 114.25
  A 0.32 0.32 0.0 0 0 285.25 114.57
  L 285.25 195.19
  A 0.32 0.32 0.0 0 0 285.57 195.51
  L 320.56 195.49
  A 0.32 0.32 0.0 0 0 320.88 195.17
  L 320.81 180.17
  A 0.32 0.32 0.0 0 0 320.49 179.85
  L 306.32 180.06
  Z
  M 141.15 183.33
  Q 139.31 184.14 137.33 183.73
  A 1.98 1.97 6.0 0 1 135.76 181.80
  L 135.74 114.99
  Q 135.74 114.50 135.24 114.50
  L 115.76 114.50
  Q 115.25 114.50 115.25 115.01
  Q 115.24 145.54 115.25 176.09
  C 115.25 186.78 116.61 193.56 127.51 196.25
  C 137.40 198.69 155.94 199.08 161.06 187.91
  Q 162.50 184.78 162.50 177.88
  Q 162.51 146.45 162.49 115.01
  Q 162.49 114.50 161.99 114.50
  L 142.53 114.50
  Q 142.04 114.50 142.04 114.99
  C 142.01 137.37 142.86 160.27 141.68 182.57
  A 0.88 0.87 80.4 0 1 141.15 183.33
  Z
  M 364.74 152.82
  C 367.00 152.13 369.83 151.56 371.58 150.41
  C 375.70 147.70 375.15 135.00 374.44 130.11
  C 373.26 122.00 369.73 116.15 361.22 115.49
  Q 351.31 114.71 328.99 115.04
  Q 328.50 115.05 328.50 115.53
  L 328.50 195.25
  Q 328.50 195.75 329.00 195.75
  L 348.50 195.75
  Q 349.00 195.75 349.00 195.25
  L 349.00 159.77
  A 0.75 0.74 88.0 0 1 349.69 159.02
  Q 352.56 158.84 355.08 160.06
  A 1.16 1.16 0.0 0 1 355.74 161.09
  L 356.08 195.04
  Q 356.09 195.75 356.79 195.75
  L 374.21 195.75
  Q 375.09 195.75 375.07 194.87
  Q 374.64 178.42 374.74 163.11
  C 374.78 157.62 369.36 154.58 364.74 153.32
  Q 363.87 153.08 364.74 152.82
  Z
  M 324.28 248.87
  L 335.86 284.56
  Q 336.00 285.00 336.47 285.00
  L 353.25 285.00
  A 0.50 0.50 0.0 0 0 353.75 284.50
  L 353.75 204.01
  Q 353.75 203.51 353.26 203.51
  L 337.23 203.47
  Q 336.75 203.47 336.75 203.96
  L 336.75 239.50
  A 0.17 0.17 0.0 0 1 336.42 239.56
  Q 329.57 222.03 324.15 203.99
  Q 324.00 203.50 323.49 203.50
  L 307.51 203.50
  A 0.50 0.50 0.0 0 0 307.01 204.00
  L 307.05 284.37
  A 0.63 0.63 0.0 0 0 307.68 285.00
  L 323.23 285.00
  A 0.80 0.79 -0.0 0 0 324.03 284.21
  L 323.94 248.92
  A 0.18 0.17 36.3 0 1 324.28 248.87
  Z
  M 175.75 251.14
  A 0.39 0.39 0.0 0 1 176.14 250.75
  L 188.16 250.75
  A 0.39 0.39 0.0 0 0 188.55 250.36
  L 188.48 236.11
  A 0.39 0.39 0.0 0 0 188.09 235.72
  L 176.14 235.81
  A 0.39 0.39 0.0 0 1 175.75 235.42
  L 175.75 219.89
  A 0.39 0.39 0.0 0 1 176.14 219.50
  L 190.14 219.50
  A 0.39 0.39 0.0 0 0 190.53 219.11
  L 190.48 204.14
  A 0.39 0.39 0.0 0 0 190.09 203.75
  L 155.29 203.75
  A 0.39 0.39 0.0 0 0 154.90 204.14
  L 154.72 284.86
  A 0.39 0.39 0.0 0 0 155.11 285.25
  L 175.36 285.25
  A 0.39 0.39 0.0 0 0 175.75 284.86
  L 175.75 251.14
  Z
  M 217.25 251.21
  A 0.46 0.46 0.0 0 1 217.71 250.75
  L 229.74 250.75
  A 0.46 0.46 0.0 0 0 230.20 250.29
  L 230.27 236.20
  A 0.46 0.46 0.0 0 0 229.81 235.74
  L 217.71 235.80
  A 0.46 0.46 0.0 0 1 217.25 235.34
  L 217.25 219.96
  A 0.46 0.46 0.0 0 1 217.71 219.50
  L 231.57 219.50
  A 0.46 0.46 0.0 0 0 232.03 219.04
  L 231.98 204.21
  A 0.46 0.46 0.0 0 0 231.52 203.75
  L 196.72 203.75
  A 0.46 0.46 0.0 0 0 196.26 204.21
  L 196.25 284.79
  A 0.46 0.46 0.0 0 0 196.71 285.25
  L 216.79 285.25
  A 0.46 0.46 0.0 0 0 217.25 284.79
  L 217.25 251.21
  Z
  M 258.60 269.74
  A 0.35 0.35 0.0 0 1 258.25 269.39
  L 258.25 204.36
  A 0.35 0.35 0.0 0 0 257.90 204.01
  L 238.10 203.97
  A 0.35 0.35 0.0 0 0 237.75 204.32
  L 237.75 284.90
  A 0.35 0.35 0.0 0 0 238.10 285.25
  L 270.90 285.25
  A 0.35 0.35 0.0 0 0 271.25 284.90
  L 271.25 270.10
  A 0.35 0.35 0.0 0 0 270.90 269.75
  L 258.60 269.74
  Z
  M 392.5131 204.2499
  A 0.30 0.30 0.0 0 0 392.2125 203.9504
  L 358.2926 204.0096
  A 0.30 0.30 0.0 0 0 357.9931 204.3101
  L 358.0069 212.2301
  A 0.30 0.30 0.0 0 0 358.3075 212.5296
  L 392.2274 212.4704
  A 0.30 0.30 0.0 0 0 392.5269 212.1699
  L 392.5131 204.2499
  Z
  M 145.51 204.40
  A 0.40 0.40 0.0 0 0 145.11 204.00
  L 125.65 204.00
  A 0.40 0.40 0.0 0 0 125.25 204.40
  L 125.25 285.10
  A 0.40 0.40 0.0 0 0 125.65 285.50
  L 145.11 285.50
  A 0.40 0.40 0.0 0 0 145.51 285.10
  L 145.51 204.40
  Z
  M 297.25 204.27
  A 0.26 0.26 0.0 0 0 296.99 204.01
  L 277.05 204.01
  A 0.26 0.26 0.0 0 0 276.79 204.27
  L 276.79 285.03
  A 0.26 0.26 0.0 0 0 277.05 285.29
  L 296.99 285.29
  A 0.26 0.26 0.0 0 0 297.25 285.03
  L 297.25 204.27
  Z
  M 89.94 285.25
  A 0.13 0.13 0.0 0 0 90.07 285.14
  L 97.24 231.49
  A 0.13 0.13 0.0 0 1 97.50 231.51
  L 97.50 285.12
  A 0.13 0.13 0.0 0 0 97.63 285.25
  L 115.89 285.25
  A 0.13 0.13 0.0 0 0 116.02 285.12
  L 115.94 204.63
  A 0.13 0.13 0.0 0 0 115.81 204.50
  L 89.30 204.50
  A 0.13 0.13 0.0 0 0 89.17 204.61
  L 83.80 241.69
  A 0.13 0.13 0.0 0 1 83.55 241.69
  L 77.84 204.61
  A 0.13 0.13 0.0 0 0 77.71 204.50
  L 50.68 204.50
  A 0.13 0.13 0.0 0 0 50.55 204.63
  L 50.38 285.12
  A 0.13 0.13 0.0 0 0 50.51 285.25
  L 68.95 285.25
  A 0.13 0.13 0.0 0 0 69.08 285.12
  L 68.72 232.94
  A 0.13 0.13 0.0 0 1 68.81 232.82
  L 69.03 232.74
  A 0.13 0.13 0.0 0 1 69.20 232.84
  L 77.16 285.14
  A 0.13 0.13 0.0 0 0 77.29 285.25
  L 89.94 285.25
  Z
  M 379.89 228.91
  A 0.33 0.33 0.0 0 1 379.79 228.26
  L 392.24 224.63
  A 0.33 0.33 0.0 0 0 392.48 224.31
  L 392.54 217.08
  A 0.33 0.33 0.0 0 0 392.21 216.75
  L 358.58 216.75
  A 0.33 0.33 0.0 0 0 358.25 217.08
  L 358.25 224.17
  A 0.33 0.33 0.0 0 0 358.58 224.50
  L 372.01 224.51
  A 0.33 0.33 0.0 0 1 372.09 225.16
  L 358.25 228.82
  A 0.33 0.33 0.0 0 0 358.00 229.13
  L 358.00 237.17
  A 0.33 0.33 0.0 0 0 358.33 237.50
  L 392.17 237.50
  A 0.33 0.33 0.0 0 0 392.50 237.17
  L 392.50 229.11
  A 0.33 0.33 0.0 0 0 392.17 228.78
  L 379.89 228.91
  Z
  M 363.65 249.50
  L 387.17 249.50
  Q 387.85 249.50 387.85 250.18
  L 387.83 252.93
  A 0.82 0.82 0.0 0 1 387.01 253.75
  L 378.50 253.75
  A 0.50 0.50 0.0 0 0 378.00 254.25
  L 378.00 261.74
  Q 378.00 262.25 378.50 262.29
  C 381.88 262.61 388.30 263.29 390.90 260.73
  C 394.57 257.13 394.84 245.09 390.29 241.95
  C 386.72 239.49 370.39 240.76 365.40 240.76
  C 354.27 240.75 355.47 261.03 362.25 262.23
  Q 365.35 262.78 371.38 262.10
  Q 371.75 262.06 371.75 261.69
  L 371.75 254.51
  Q 371.75 253.77 371.01 253.76
  L 363.70 253.72
  A 0.70 0.70 0.0 0 1 363.00 253.02
  L 363.00 250.16
  A 0.66 0.65 90.0 0 1 363.65 249.50
  Z
  M 363.92 286.08
  Q 362.83 288.74 360.52 290.38
  A 1.21 1.20 -17.7 0 0 360.01 291.36
  L 359.99 295.73
  Q 359.99 296.47 360.71 296.31
  C 367.50 294.76 373.72 288.03 373.75 280.99
  Q 373.78 274.13 373.73 270.19
  Q 373.73 269.68 373.21 269.69
  L 360.48 269.78
  Q 360.00 269.78 360.00 270.27
  L 360.00 284.74
  Q 360.00 285.24 360.50 285.24
  L 363.38 285.27
  A 0.59 0.58 11.4 0 1 363.92 286.08
  Z
  M 195.12 301.48
  C 184.39 306.51 192.43 321.49 204.44 316.64
  Q 205.00 316.41 205.00 315.81
  L 205.00 313.78
  A 0.35 0.35 0.0 0 0 204.47 313.48
  Q 199.10 316.82 194.77 312.70
  Q 192.13 310.20 193.22 307.21
  C 194.86 302.73 200.69 302.74 204.35 304.55
  Q 204.91 304.83 204.97 304.21
  C 205.44 299.39 197.58 300.33 195.12 301.48
  Z
  M 345.07 309.78
  Q 345.08 310.97 344.24 310.13
  Q 340.23 306.14 336.32 301.93
  C 334.93 300.44 333.56 300.24 331.65 300.56
  Q 331.25 300.63 331.25 301.04
  L 331.25 316.63
  Q 331.25 317.25 331.88 317.25
  L 334.38 317.25
  Q 335.00 317.25 335.00 316.62
  L 334.99 307.75
  Q 334.99 306.90 335.59 307.50
  L 345.12 316.98
  A 0.95 0.92 -21.9 0 0 345.78 317.25
  L 348.22 317.25
  A 0.78 0.78 0.0 0 0 349.00 316.47
  L 349.00 301.00
  Q 349.00 300.50 348.50 300.50
  L 345.61 300.50
  Q 344.96 300.50 344.97 301.14
  L 345.07 309.78
  Z
  M 367.56 305.68
  L 363.96 300.93
  Q 363.63 300.50 363.09 300.50
  L 360.50 300.50
  Q 359.64 300.50 360.12 301.21
  Q 362.37 304.61 364.66 308.00
  C 366.53 310.77 366.12 313.53 365.96 316.66
  Q 365.93 317.25 366.52 317.25
  L 369.25 317.25
  A 0.75 0.75 0.0 0 0 370.00 316.50
  L 370.00 310.44
  Q 370.00 309.91 370.29 309.48
  L 375.76 301.21
  Q 376.09 300.73 375.52 300.59
  C 371.54 299.59 370.36 303.16 368.30 305.69
  Q 367.92 306.16 367.56 305.68
  Z
  M 75.89 313.77
  A 0.31 0.31 0.0 0 1 76.17 313.62
  L 83.35 313.81
  A 0.31 0.31 0.0 0 1 83.62 313.99
  L 85.28 317.33
  A 0.31 0.31 0.0 0 0 85.56 317.50
  L 88.71 317.50
  A 0.31 0.31 0.0 0 0 88.98 317.04
  L 79.77 300.99
  A 0.31 0.31 0.0 0 0 79.23 301.00
  L 70.24 317.04
  A 0.31 0.31 0.0 0 0 70.51 317.50
  L 73.64 317.50
  A 0.31 0.31 0.0 0 0 73.91 317.34
  L 75.89 313.77
  Z
  M 127.72 315.49
  A 0.47 0.47 0.0 0 1 127.25 315.02
  L 127.25 309.96
  A 0.47 0.47 0.0 0 1 127.72 309.49
  L 133.78 309.51
  A 0.47 0.47 0.0 0 0 134.25 309.04
  L 134.25 307.45
  A 0.47 0.47 0.0 0 0 133.77 306.98
  L 127.73 307.04
  A 0.47 0.47 0.0 0 1 127.25 306.57
  L 127.25 303.72
  A 0.47 0.47 0.0 0 1 127.72 303.25
  L 134.78 303.25
  A 0.47 0.47 0.0 0 0 135.25 302.78
  L 135.25 301.22
  A 0.47 0.47 0.0 0 0 134.78 300.75
  L 124.97 300.75
  A 0.47 0.47 0.0 0 0 124.50 301.22
  L 124.50 317.28
  A 0.47 0.47 0.0 0 0 124.97 317.75
  L 134.78 317.75
  A 0.47 0.47 0.0 0 0 135.25 317.28
  L 135.25 315.97
  A 0.47 0.47 0.0 0 0 134.78 315.50
  L 127.72 315.49
  Z
  M 313.89 313.45
  A 0.31 0.31 0.0 0 1 314.17 313.62
  L 316.14 317.34
  A 0.31 0.31 0.0 0 0 316.42 317.50
  L 319.56 317.50
  A 0.31 0.31 0.0 0 0 319.83 317.04
  L 310.55 300.94
  A 0.31 0.31 0.0 0 0 310.01 300.94
  L 301.09 317.04
  A 0.31 0.31 0.0 0 0 301.37 317.50
  L 304.38 317.50
  A 0.31 0.31 0.0 0 0 304.65 317.34
  L 306.66 313.75
  A 0.31 0.31 0.0 0 1 306.93 313.60
  L 313.89 313.45
  Z
  M 58.43 301.08
  L 51.27 300.96
  Q 50.75 300.95 50.75 301.48
  L 50.75 316.00
  Q 50.75 316.50 51.25 316.50
  L 53.00 316.50
  Q 53.50 316.50 53.50 316.00
  L 53.50 311.47
  A 0.78 0.78 0.0 0 1 54.38 310.70
  C 60.40 311.49 63.25 306.09 59.51 301.59
  A 1.45 1.43 -19.3 0 0 58.43 301.08
  Z
  M 103.96 310.71
  C 110.19 311.35 112.88 306.74 109.36 301.55
  A 0.97 0.95 73.2 0 0 108.59 301.13
  L 101.04 300.94
  Q 100.50 300.93 100.50 301.47
  L 100.50 315.88
  Q 100.50 316.50 101.13 316.50
  L 102.50 316.50
  Q 103.24 316.50 103.24 315.75
  L 103.26 311.35
  A 0.64 0.64 0.0 0 1 103.96 310.71
  Z
  M 152.70 310.97
  L 156.28 315.99
  A 1.22 1.20 -17.4 0 0 157.27 316.50
  L 159.77 316.50
  Q 160.49 316.50 160.02 315.95
  L 156.11 311.39
  Q 155.69 310.90 156.22 310.54
  Q 158.82 308.73 158.44 304.76
  C 157.95 299.71 153.03 300.87 148.89 301.06
  Q 148.39 301.09 148.39 301.59
  L 148.43 315.75
  A 1.41 1.41 0.0 0 0 151.25 315.75
  L 151.25 311.43
  A 0.80 0.80 0.0 0 1 152.70 310.97
  Z
  M 236.7099 309.1190
  A 9.74 8.24 -0.3 0 0 226.9269 300.9301
  A 9.74 8.24 -0.3 0 0 217.2301 309.2210
  A 9.74 8.24 -0.3 0 0 227.0131 317.4099
  A 9.74 8.24 -0.3 0 0 236.7099 309.1190
  Z
  M 284.37 310.68
  Q 290.79 311.65 291.18 305.62
  C 291.54 300.00 284.82 300.72 281.33 301.08
  Q 280.75 301.14 280.75 301.73
  L 280.75 316.00
  Q 280.75 316.50 281.25 316.50
  L 282.96 316.50
  Q 283.42 316.50 283.44 316.04
  L 283.65 311.28
  Q 283.68 310.58 284.37 310.68
  Z
  M 253.94 306.96
  L 259.48 314.08
  Q 259.82 314.52 260.16 314.08
  L 265.68 306.95
  A 0.46 0.46 0.0 0 1 266.50 307.23
  L 266.50 316.96
  A 0.60 0.60 0.0 0 0 267.22 317.55
  L 268.70 317.22
  Q 269.25 317.10 269.25 316.54
  L 269.25 302.74
  Q 269.25 302.25 268.77 302.10
  C 264.78 300.92 262.33 306.87 260.19 309.53
  Q 259.80 310.01 259.43 309.52
  C 257.41 306.87 254.94 301.13 251.03 302.07
  A 0.70 0.69 -7.0 0 0 250.50 302.74
  L 250.50 316.75
  Q 250.50 317.25 251.00 317.25
  L 252.75 317.25
  Q 253.25 317.25 253.25 316.75
  L 253.25 307.19
  A 0.39 0.38 26.3 0 1 253.94 306.96
  Z"
/>
<path fill="#ffffff" d="
  M 87.96 114.70
  C 96.51 114.80 105.46 118.95 105.48 128.72
  Q 105.53 156.86 105.48 185.00
  C 105.46 194.56 93.70 195.80 86.83 195.73
  Q 72.85 195.58 58.91 195.66
  A 0.41 0.41 0.0 0 1 58.50 195.25
  L 58.50 115.00
  Q 58.50 114.44 59.06 114.44
  Q 73.66 114.53 87.96 114.70
  Z
  M 84.15 128.50
  L 78.75 127.87
  Q 78.02 127.79 78.02 128.52
  L 77.99 181.68
  Q 77.99 182.17 78.48 182.21
  Q 82.25 182.48 85.21 180.33
  A 1.31 1.30 72.2 0 0 85.75 179.27
  L 85.75 130.30
  A 1.81 1.81 0.0 0 0 84.15 128.50
  Z"
/>
<path fill="#ffffff" d="
  M 188.54 159.87
  L 188.50 195.13
  Q 188.50 195.75 187.87 195.75
  L 172.75 195.75
  Q 171.63 195.75 171.67 194.63
  C 172.69 168.18 171.60 148.03 171.82 114.83
  Q 171.82 114.31 172.34 114.30
  L 188.03 114.23
  Q 188.39 114.22 188.51 114.56
  L 200.96 150.75
  A 0.33 0.33 0.0 0 0 201.60 150.65
  L 201.79 114.76
  Q 201.79 114.25 202.30 114.25
  L 217.75 114.25
  Q 218.50 114.25 218.50 115.00
  L 218.50 194.97
  Q 218.50 195.75 217.72 195.75
  L 201.26 195.75
  Q 200.73 195.75 200.56 195.24
  L 189.04 159.79
  A 0.26 0.26 0.0 0 0 188.54 159.87
  Z"
/>
<path fill="#ffffff" d="
  M 228.52 114.48
  Q 241.48 114.49 254.03 114.54
  C 262.23 114.57 275.22 116.80 275.24 127.55
  Q 275.27 155.87 275.24 184.19
  C 275.23 194.05 265.56 195.68 257.89 195.72
  Q 243.30 195.79 228.75 195.74
  A 0.51 0.51 0.0 0 1 228.25 195.23
  L 228.25 114.75
  A 0.27 0.27 0.0 0 1 228.52 114.48
  Z
  M 247.76 128.51
  L 247.66 181.75
  A 0.51 0.51 0.0 0 0 248.17 182.26
  L 250.58 182.27
  A 5.18 4.68 0.1 0 0 255.77 177.60
  L 255.85 132.70
  A 5.18 4.68 0.1 0 0 250.68 128.01
  L 248.27 128.00
  A 0.51 0.51 0.0 0 0 247.76 128.51
  Z"
/>
<path fill="#ffffff" d="
  M 306.32 180.06
  L 320.49 179.85
  A 0.32 0.32 0.0 0 1 320.81 180.17
  L 320.88 195.17
  A 0.32 0.32 0.0 0 1 320.56 195.49
  L 285.57 195.51
  A 0.32 0.32 0.0 0 1 285.25 195.19
  L 285.25 114.57
  A 0.32 0.32 0.0 0 1 285.57 114.25
  L 319.48 114.25
  A 0.32 0.32 0.0 0 1 319.80 114.57
  L 320.00 129.71
  A 0.32 0.32 0.0 0 1 319.67 130.04
  L 306.32 129.92
  A 0.32 0.32 0.0 0 0 306.00 130.24
  L 306.00 146.68
  A 0.32 0.32 0.0 0 0 306.32 147.00
  L 318.68 147.00
  A 0.32 0.32 0.0 0 1 319.00 147.32
  L 319.00 160.43
  A 0.32 0.32 0.0 0 1 318.68 160.75
  L 306.32 160.75
  A 0.32 0.32 0.0 0 0 306.00 161.07
  L 306.00 179.74
  A 0.32 0.32 0.0 0 0 306.32 180.06
  Z"
/>
<path fill="#ffffff" d="
  M 141.68 182.57
  C 142.86 160.27 142.01 137.37 142.04 114.99
  Q 142.04 114.50 142.53 114.50
  L 161.99 114.50
  Q 162.49 114.50 162.49 115.01
  Q 162.51 146.45 162.50 177.88
  Q 162.50 184.78 161.06 187.91
  C 155.94 199.08 137.40 198.69 127.51 196.25
  C 116.61 193.56 115.25 186.78 115.25 176.09
  Q 115.24 145.54 115.25 115.01
  Q 115.25 114.50 115.76 114.50
  L 135.24 114.50
  Q 135.74 114.50 135.74 114.99
  L 135.76 181.80
  A 1.98 1.97 6.0 0 0 137.33 183.73
  Q 139.31 184.14 141.15 183.33
  A 0.88 0.87 80.4 0 0 141.68 182.57
  Z"
/>
<path fill="#ffffff" d="
  M 364.74 153.32
  C 369.36 154.58 374.78 157.62 374.74 163.11
  Q 374.64 178.42 375.07 194.87
  Q 375.09 195.75 374.21 195.75
  L 356.79 195.75
  Q 356.09 195.75 356.08 195.04
  L 355.74 161.09
  A 1.16 1.16 0.0 0 0 355.08 160.06
  Q 352.56 158.84 349.69 159.02
  A 0.75 0.74 88.0 0 0 349.00 159.77
  L 349.00 195.25
  Q 349.00 195.75 348.50 195.75
  L 329.00 195.75
  Q 328.50 195.75 328.50 195.25
  L 328.50 115.53
  Q 328.50 115.05 328.99 115.04
  Q 351.31 114.71 361.22 115.49
  C 369.73 116.15 373.26 122.00 374.44 130.11
  C 375.15 135.00 375.70 147.70 371.58 150.41
  C 369.83 151.56 367.00 152.13 364.74 152.82
  Q 363.87 153.08 364.74 153.32
  Z
  M 349.06 128.61
  L 349.06 146.15
  A 0.86 0.86 0.0 0 0 349.92 147.01
  L 351.38 147.01
  A 4.64 3.62 -0.0 0 0 356.02 143.39
  L 356.02 131.37
  A 4.64 3.62 0.0 0 0 351.38 127.75
  L 349.92 127.75
  A 0.86 0.86 0.0 0 0 349.06 128.61
  Z"
/>
<path fill="#000000" d="
  M 349.06 128.61
  A 0.86 0.86 0.0 0 1 349.92 127.75
  L 351.38 127.75
  A 4.64 3.62 -0.0 0 1 356.02 131.37
  L 356.02 143.39
  A 4.64 3.62 -0.0 0 1 351.38 147.01
  L 349.92 147.01
  A 0.86 0.86 0.0 0 1 349.06 146.15
  L 349.06 128.61
  Z"
/>
<path fill="#000000" d="
  M 84.15 128.50
  A 1.81 1.81 0.0 0 1 85.75 130.30
  L 85.75 179.27
  A 1.31 1.30 72.2 0 1 85.21 180.33
  Q 82.25 182.48 78.48 182.21
  Q 77.99 182.17 77.99 181.68
  L 78.02 128.52
  Q 78.02 127.79 78.75 127.87
  L 84.15 128.50
  Z"
/>
<path fill="#000000" d="
  M 247.76 128.51
  A 0.51 0.51 0.0 0 1 248.27 128.00
  L 250.68 128.01
  A 5.18 4.68 0.1 0 1 255.85 132.70
  L 255.77 177.60
  A 5.18 4.68 0.1 0 1 250.58 182.27
  L 248.17 182.26
  A 0.51 0.51 0.0 0 1 247.66 181.75
  L 247.76 128.51
  Z"
/>
<path fill="#ffffff" d="
  M 324.28 248.87
  A 0.18 0.17 36.3 0 0 323.94 248.92
  L 324.03 284.21
  A 0.80 0.79 0.0 0 1 323.23 285.00
  L 307.68 285.00
  A 0.63 0.63 0.0 0 1 307.05 284.37
  L 307.01 204.00
  A 0.50 0.50 0.0 0 1 307.51 203.50
  L 323.49 203.50
  Q 324.00 203.50 324.15 203.99
  Q 329.57 222.03 336.42 239.56
  A 0.17 0.17 0.0 0 0 336.75 239.50
  L 336.75 203.96
  Q 336.75 203.47 337.23 203.47
  L 353.26 203.51
  Q 353.75 203.51 353.75 204.01
  L 353.75 284.50
  A 0.50 0.50 0.0 0 1 353.25 285.00
  L 336.47 285.00
  Q 336.00 285.00 335.86 284.56
  L 324.28 248.87
  Z"
/>
<path fill="#ffffff" d="
  M 175.75 251.14
  L 175.75 284.86
  A 0.39 0.39 0.0 0 1 175.36 285.25
  L 155.11 285.25
  A 0.39 0.39 0.0 0 1 154.72 284.86
  L 154.90 204.14
  A 0.39 0.39 0.0 0 1 155.29 203.75
  L 190.09 203.75
  A 0.39 0.39 0.0 0 1 190.48 204.14
  L 190.53 219.11
  A 0.39 0.39 0.0 0 1 190.14 219.50
  L 176.14 219.50
  A 0.39 0.39 0.0 0 0 175.75 219.89
  L 175.75 235.42
  A 0.39 0.39 0.0 0 0 176.14 235.81
  L 188.09 235.72
  A 0.39 0.39 0.0 0 1 188.48 236.11
  L 188.55 250.36
  A 0.39 0.39 0.0 0 1 188.16 250.75
  L 176.14 250.75
  A 0.39 0.39 0.0 0 0 175.75 251.14
  Z"
/>
<path fill="#ffffff" d="
  M 217.25 251.21
  L 217.25 284.79
  A 0.46 0.46 0.0 0 1 216.79 285.25
  L 196.71 285.25
  A 0.46 0.46 0.0 0 1 196.25 284.79
  L 196.26 204.21
  A 0.46 0.46 0.0 0 1 196.72 203.75
  L 231.52 203.75
  A 0.46 0.46 0.0 0 1 231.98 204.21
  L 232.03 219.04
  A 0.46 0.46 0.0 0 1 231.57 219.50
  L 217.71 219.50
  A 0.46 0.46 0.0 0 0 217.25 219.96
  L 217.25 235.34
  A 0.46 0.46 0.0 0 0 217.71 235.80
  L 229.81 235.74
  A 0.46 0.46 0.0 0 1 230.27 236.20
  L 230.20 250.29
  A 0.46 0.46 0.0 0 1 229.74 250.75
  L 217.71 250.75
  A 0.46 0.46 0.0 0 0 217.25 251.21
  Z"
/>
<path fill="#ffffff" d="
  M 258.60 269.74
  L 270.90 269.75
  A 0.35 0.35 0.0 0 1 271.25 270.10
  L 271.25 284.90
  A 0.35 0.35 0.0 0 1 270.90 285.25
  L 238.10 285.25
  A 0.35 0.35 0.0 0 1 237.75 284.90
  L 237.75 204.32
  A 0.35 0.35 0.0 0 1 238.10 203.97
  L 257.90 204.01
  A 0.35 0.35 0.0 0 1 258.25 204.36
  L 258.25 269.39
  A 0.35 0.35 0.0 0 0 258.60 269.74
  Z"
/>
<rect fill="#b9b8b8" x="-17.26" y="-4.26" transform="translate(375.26,208.24) rotate(-0.1)" width="34.52" height="8.52" rx="0.30"/>
<rect fill="#ffffff" x="125.25" y="204.00" width="20.26" height="81.50" rx="0.40"/>
<rect fill="#ffffff" x="276.79" y="204.01" width="20.46" height="81.28" rx="0.26"/>
<path fill="#ffffff" d="
  M 89.94 285.25
  L 77.29 285.25
  A 0.13 0.13 0.0 0 1 77.16 285.14
  L 69.20 232.84
  A 0.13 0.13 0.0 0 0 69.03 232.74
  L 68.81 232.82
  A 0.13 0.13 0.0 0 0 68.72 232.94
  L 69.08 285.12
  A 0.13 0.13 0.0 0 1 68.95 285.25
  L 50.51 285.25
  A 0.13 0.13 0.0 0 1 50.38 285.12
  L 50.55 204.63
  A 0.13 0.13 0.0 0 1 50.68 204.50
  L 77.71 204.50
  A 0.13 0.13 0.0 0 1 77.84 204.61
  L 83.55 241.69
  A 0.13 0.13 0.0 0 0 83.80 241.69
  L 89.17 204.61
  A 0.13 0.13 0.0 0 1 89.30 204.50
  L 115.81 204.50
  A 0.13 0.13 0.0 0 1 115.94 204.63
  L 116.02 285.12
  A 0.13 0.13 0.0 0 1 115.89 285.25
  L 97.63 285.25
  A 0.13 0.13 0.0 0 1 97.50 285.12
  L 97.50 231.51
  A 0.13 0.13 0.0 0 0 97.24 231.49
  L 90.07 285.14
  A 0.13 0.13 0.0 0 1 89.94 285.25
  Z"
/>
<path fill="#b9b8b8" d="
  M 379.89 228.91
  L 392.17 228.78
  A 0.33 0.33 0.0 0 1 392.50 229.11
  L 392.50 237.17
  A 0.33 0.33 0.0 0 1 392.17 237.50
  L 358.33 237.50
  A 0.33 0.33 0.0 0 1 358.00 237.17
  L 358.00 229.13
  A 0.33 0.33 0.0 0 1 358.25 228.82
  L 372.09 225.16
  A 0.33 0.33 0.0 0 0 372.01 224.51
  L 358.58 224.50
  A 0.33 0.33 0.0 0 1 358.25 224.17
  L 358.25 217.08
  A 0.33 0.33 0.0 0 1 358.58 216.75
  L 392.21 216.75
  A 0.33 0.33 0.0 0 1 392.54 217.08
  L 392.48 224.31
  A 0.33 0.33 0.0 0 1 392.24 224.63
  L 379.79 228.26
  A 0.33 0.33 0.0 0 0 379.89 228.91
  Z"
/>
<path fill="#b9b8b8" d="
  M 363.00 250.16
  L 363.00 253.02
  A 0.70 0.70 0.0 0 0 363.70 253.72
  L 371.01 253.76
  Q 371.75 253.77 371.75 254.51
  L 371.75 261.69
  Q 371.75 262.06 371.38 262.10
  Q 365.35 262.78 362.25 262.23
  C 355.47 261.03 354.27 240.75 365.40 240.76
  C 370.39 240.76 386.72 239.49 390.29 241.95
  C 394.84 245.09 394.57 257.13 390.90 260.73
  C 388.30 263.29 381.88 262.61 378.50 262.29
  Q 378.00 262.25 378.00 261.74
  L 378.00 254.25
  A 0.50 0.50 0.0 0 1 378.50 253.75
  L 387.01 253.75
  A 0.82 0.82 0.0 0 0 387.83 252.93
  L 387.85 250.18
  Q 387.85 249.50 387.17 249.50
  L 363.65 249.50
  A 0.66 0.65 -90.0 0 0 363.00 250.16
  Z"
/>
<path fill="#ffffff" d="
  M 363.38 285.27
  L 360.50 285.24
  Q 360.00 285.24 360.00 284.74
  L 360.00 270.27
  Q 360.00 269.78 360.48 269.78
  L 373.21 269.69
  Q 373.73 269.68 373.73 270.19
  Q 373.78 274.13 373.75 280.99
  C 373.72 288.03 367.50 294.76 360.71 296.31
  Q 359.99 296.47 359.99 295.73
  L 360.01 291.36
  A 1.21 1.20 -17.7 0 1 360.52 290.38
  Q 362.83 288.74 363.92 286.08
  A 0.59 0.58 11.4 0 0 363.38 285.27
  Z"
/>
<path fill="#ffffff" d="
  M 204.44 316.64
  C 192.43 321.49 184.39 306.51 195.12 301.48
  C 197.58 300.33 205.44 299.39 204.97 304.21
  Q 204.91 304.83 204.35 304.55
  C 200.69 302.74 194.86 302.73 193.22 307.21
  Q 192.13 310.20 194.77 312.70
  Q 199.10 316.82 204.47 313.48
  A 0.35 0.35 0.0 0 1 205.00 313.78
  L 205.00 315.81
  Q 205.00 316.41 204.44 316.64
  Z"
/>
<path fill="#ffffff" d="
  M 345.07 309.78
  L 344.97 301.14
  Q 344.96 300.50 345.61 300.50
  L 348.50 300.50
  Q 349.00 300.50 349.00 301.00
  L 349.00 316.47
  A 0.78 0.78 0.0 0 1 348.22 317.25
  L 345.78 317.25
  A 0.95 0.92 -21.9 0 1 345.12 316.98
  L 335.59 307.50
  Q 334.99 306.90 334.99 307.75
  L 335.00 316.62
  Q 335.00 317.25 334.38 317.25
  L 331.88 317.25
  Q 331.25 317.25 331.25 316.63
  L 331.25 301.04
  Q 331.25 300.63 331.65 300.56
  C 333.56 300.24 334.93 300.44 336.32 301.93
  Q 340.23 306.14 344.24 310.13
  Q 345.08 310.97 345.07 309.78
  Z"
/>
<path fill="#ffffff" d="
  M 368.30 305.69
  C 370.36 303.16 371.54 299.59 375.52 300.59
  Q 376.09 300.73 375.76 301.21
  L 370.29 309.48
  Q 370.00 309.91 370.00 310.44
  L 370.00 316.50
  A 0.75 0.75 0.0 0 1 369.25 317.25
  L 366.52 317.25
  Q 365.93 317.25 365.96 316.66
  C 366.12 313.53 366.53 310.77 364.66 308.00
  Q 362.37 304.61 360.12 301.21
  Q 359.64 300.50 360.50 300.50
  L 363.09 300.50
  Q 363.63 300.50 363.96 300.93
  L 367.56 305.68
  Q 367.92 306.16 368.30 305.69
  Z"
/>
<path fill="#ffffff" d="
  M 75.89 313.77
  L 73.91 317.34
  A 0.31 0.31 0.0 0 1 73.64 317.50
  L 70.51 317.50
  A 0.31 0.31 0.0 0 1 70.24 317.04
  L 79.23 301.00
  A 0.31 0.31 0.0 0 1 79.77 300.99
  L 88.98 317.04
  A 0.31 0.31 0.0 0 1 88.71 317.50
  L 85.56 317.50
  A 0.31 0.31 0.0 0 1 85.28 317.33
  L 83.62 313.99
  A 0.31 0.31 0.0 0 0 83.35 313.81
  L 76.17 313.62
  A 0.31 0.31 0.0 0 0 75.89 313.77
  Z
  M 77.67 310.22
  A 0.33 0.33 0.0 0 0 77.96 310.71
  L 81.18 310.78
  A 0.33 0.33 0.0 0 0 81.49 310.31
  L 79.95 307.09
  A 0.33 0.33 0.0 0 0 79.36 307.07
  L 77.67 310.22
  Z"
/>
<path fill="#ffffff" d="
  M 127.72 315.49
  L 134.78 315.50
  A 0.47 0.47 0.0 0 1 135.25 315.97
  L 135.25 317.28
  A 0.47 0.47 0.0 0 1 134.78 317.75
  L 124.97 317.75
  A 0.47 0.47 0.0 0 1 124.50 317.28
  L 124.50 301.22
  A 0.47 0.47 0.0 0 1 124.97 300.75
  L 134.78 300.75
  A 0.47 0.47 0.0 0 1 135.25 301.22
  L 135.25 302.78
  A 0.47 0.47 0.0 0 1 134.78 303.25
  L 127.72 303.25
  A 0.47 0.47 0.0 0 0 127.25 303.72
  L 127.25 306.57
  A 0.47 0.47 0.0 0 0 127.73 307.04
  L 133.77 306.98
  A 0.47 0.47 0.0 0 1 134.25 307.45
  L 134.25 309.04
  A 0.47 0.47 0.0 0 1 133.78 309.51
  L 127.72 309.49
  A 0.47 0.47 0.0 0 0 127.25 309.96
  L 127.25 315.02
  A 0.47 0.47 0.0 0 0 127.72 315.49
  Z"
/>
<path fill="#ffffff" d="
  M 313.89 313.45
  L 306.93 313.60
  A 0.31 0.31 0.0 0 0 306.66 313.75
  L 304.65 317.34
  A 0.31 0.31 0.0 0 1 304.38 317.50
  L 301.37 317.50
  A 0.31 0.31 0.0 0 1 301.09 317.04
  L 310.01 300.94
  A 0.31 0.31 0.0 0 1 310.55 300.94
  L 319.83 317.04
  A 0.31 0.31 0.0 0 1 319.56 317.50
  L 316.42 317.50
  A 0.31 0.31 0.0 0 1 316.14 317.34
  L 314.17 313.62
  A 0.31 0.31 0.0 0 0 313.89 313.45
  Z
  M 308.49 310.26
  A 0.33 0.33 0.0 0 0 308.78 310.74
  L 312.08 310.76
  A 0.33 0.33 0.0 0 0 312.38 310.28
  L 310.75 306.96
  A 0.33 0.33 0.0 0 0 310.16 306.96
  L 308.49 310.26
  Z"
/>
<path fill="#ffffff" d="
  M 59.51 301.59
  C 63.25 306.09 60.40 311.49 54.38 310.70
  A 0.78 0.78 0.0 0 0 53.50 311.47
  L 53.50 316.00
  Q 53.50 316.50 53.00 316.50
  L 51.25 316.50
  Q 50.75 316.50 50.75 316.00
  L 50.75 301.48
  Q 50.75 300.95 51.27 300.96
  L 58.43 301.08
  A 1.45 1.43 -19.3 0 1 59.51 301.59
  Z
  M 53.52 304.44
  L 53.67 307.69
  A 0.38 0.38 0.0 0 0 54.06 308.06
  L 55.61 307.99
  A 2.71 1.88 -2.6 0 0 58.23 305.98
  L 58.22 305.72
  A 2.71 1.88 -2.6 0 0 55.43 303.97
  L 53.88 304.04
  A 0.38 0.38 0.0 0 0 53.52 304.44
  Z"
/>
<path fill="#ffffff" d="
  M 103.26 311.35
  L 103.24 315.75
  Q 103.24 316.50 102.50 316.50
  L 101.13 316.50
  Q 100.50 316.50 100.50 315.88
  L 100.50 301.47
  Q 100.50 300.93 101.04 300.94
  L 108.59 301.13
  A 0.97 0.95 73.2 0 1 109.36 301.55
  C 112.88 306.74 110.19 311.35 103.96 310.71
  A 0.64 0.64 0.0 0 0 103.26 311.35
  Z
  M 103.51 304.23
  L 103.49 307.53
  A 0.45 0.45 0.0 0 0 103.94 307.98
  L 104.76 307.99
  A 3.17 1.99 0.2 0 0 107.94 306.01
  L 107.94 305.79
  A 3.17 1.99 0.2 0 0 104.78 303.79
  L 103.96 303.78
  A 0.45 0.45 0.0 0 0 103.51 304.23
  Z"
/>
<path fill="#ffffff" d="
  M 152.70 310.97
  A 0.80 0.80 0.0 0 0 151.25 311.43
  L 151.25 315.75
  A 1.41 1.41 0.0 0 1 148.43 315.75
  L 148.39 301.59
  Q 148.39 301.09 148.89 301.06
  C 153.03 300.87 157.95 299.71 158.44 304.76
  Q 158.82 308.73 156.22 310.54
  Q 155.69 310.90 156.11 311.39
  L 160.02 315.95
  Q 160.49 316.50 159.77 316.50
  L 157.27 316.50
  A 1.22 1.20 -17.4 0 1 156.28 315.99
  L 152.70 310.97
  Z
  M 151.23 304.53
  L 151.25 307.23
  A 0.77 0.77 0.0 0 0 152.02 308.00
  L 152.85 307.99
  A 2.92 1.89 -0.3 0 0 155.76 306.09
  L 155.76 305.63
  A 2.92 1.89 -0.3 0 0 152.83 303.75
  L 152.00 303.76
  A 0.77 0.77 0.0 0 0 151.23 304.53
  Z"
/>
<path fill="#ffffff" d="
  M 236.7099 309.1190
  A 9.74 8.24 -0.3 0 1 227.0131 317.4099
  A 9.74 8.24 -0.3 0 1 217.2301 309.2210
  A 9.74 8.24 -0.3 0 1 226.9269 300.9301
  A 9.74 8.24 -0.3 0 1 236.7099 309.1190
  Z
  M 233.7295 309.1333
  A 6.82 5.59 0.7 0 0 226.9783 303.4604
  A 6.82 5.59 0.7 0 0 220.0905 308.9667
  A 6.82 5.59 0.7 0 0 226.8417 314.6396
  A 6.82 5.59 0.7 0 0 233.7295 309.1333
  Z"
/>
<path fill="#ffffff" d="
  M 283.65 311.28
  L 283.44 316.04
  Q 283.42 316.50 282.96 316.50
  L 281.25 316.50
  Q 280.75 316.50 280.75 316.00
  L 280.75 301.73
  Q 280.75 301.14 281.33 301.08
  C 284.82 300.72 291.54 300.00 291.18 305.62
  Q 290.79 311.65 284.37 310.68
  Q 283.68 310.58 283.65 311.28
  Z
  M 283.72 304.55
  L 283.76 307.27
  A 0.77 0.77 0.0 0 0 284.54 308.02
  L 284.90 308.02
  A 3.39 1.88 -0.9 0 0 288.26 306.08
  L 288.26 305.58
  A 3.39 1.88 -0.9 0 0 284.84 303.76
  L 284.48 303.76
  A 0.77 0.77 0.0 0 0 283.72 304.55
  Z"
/>
<path fill="#ffffff" d="
  M 253.25 307.19
  L 253.25 316.75
  Q 253.25 317.25 252.75 317.25
  L 251.00 317.25
  Q 250.50 317.25 250.50 316.75
  L 250.50 302.74
  A 0.70 0.69 -7.0 0 1 251.03 302.07
  C 254.94 301.13 257.41 306.87 259.43 309.52
  Q 259.80 310.01 260.19 309.53
  C 262.33 306.87 264.78 300.92 268.77 302.10
  Q 269.25 302.25 269.25 302.74
  L 269.25 316.54
  Q 269.25 317.10 268.70 317.22
  L 267.22 317.55
  A 0.60 0.60 0.0 0 1 266.50 316.96
  L 266.50 307.23
  A 0.46 0.46 0.0 0 0 265.68 306.95
  L 260.16 314.08
  Q 259.82 314.52 259.48 314.08
  L 253.94 306.96
  A 0.39 0.38 26.3 0 0 253.25 307.19
  Z"
/>
<ellipse fill="#000000" cx="0.00" cy="0.00" transform="translate(226.91,309.05) rotate(0.7)" rx="6.82" ry="5.59"/>
<path fill="#000000" d="
  M 103.51 304.23
  A 0.45 0.45 0.0 0 1 103.96 303.78
  L 104.78 303.79
  A 3.17 1.99 0.2 0 1 107.94 305.79
  L 107.94 306.01
  A 3.17 1.99 0.2 0 1 104.76 307.99
  L 103.94 307.98
  A 0.45 0.45 0.0 0 1 103.49 307.53
  L 103.51 304.23
  Z"
/>
<path fill="#000000" d="
  M 151.23 304.53
  A 0.77 0.77 0.0 0 1 152.00 303.76
  L 152.83 303.75
  A 2.92 1.89 -0.3 0 1 155.76 305.63
  L 155.76 306.09
  A 2.92 1.89 -0.3 0 1 152.85 307.99
  L 152.02 308.00
  A 0.77 0.77 0.0 0 1 151.25 307.23
  L 151.23 304.53
  Z"
/>
<path fill="#000000" d="
  M 283.72 304.55
  A 0.77 0.77 0.0 0 1 284.48 303.76
  L 284.84 303.76
  A 3.39 1.88 -0.9 0 1 288.26 305.58
  L 288.26 306.08
  A 3.39 1.88 -0.9 0 1 284.90 308.02
  L 284.54 308.02
  A 0.77 0.77 0.0 0 1 283.76 307.27
  L 283.72 304.55
  Z"
/>
<path fill="#000000" d="
  M 53.52 304.44
  A 0.38 0.38 0.0 0 1 53.88 304.04
  L 55.43 303.97
  A 2.71 1.88 -2.6 0 1 58.22 305.72
  L 58.23 305.98
  A 2.71 1.88 -2.6 0 1 55.61 307.99
  L 54.06 308.06
  A 0.38 0.38 0.0 0 1 53.67 307.69
  L 53.52 304.44
  Z"
/>
<path fill="#000000" d="
  M 77.67 310.22
  L 79.36 307.07
  A 0.33 0.33 0.0 0 1 79.95 307.09
  L 81.49 310.31
  A 0.33 0.33 0.0 0 1 81.18 310.78
  L 77.96 310.71
  A 0.33 0.33 0.0 0 1 77.67 310.22
  Z"
/>
<path fill="#000000" d="
  M 308.49 310.26
  L 310.16 306.96
  A 0.33 0.33 0.0 0 1 310.75 306.96
  L 312.38 310.28
  A 0.33 0.33 0.0 0 1 312.08 310.76
  L 308.78 310.74
  A 0.33 0.33 0.0 0 1 308.49 310.26
  Z"
/>
</svg>
